<?xml version="1.0" encoding="UTF-8" standalone="no"?>
<svg
   xmlns:dc="http://purl.org/dc/elements/1.1/"
   xmlns:cc="http://creativecommons.org/ns#"
   xmlns:rdf="http://www.w3.org/1999/02/22-rdf-syntax-ns#"
   xmlns:svg="http://www.w3.org/2000/svg"
   xmlns="http://www.w3.org/2000/svg"
   xmlns:sodipodi="http://sodipodi.sourceforge.net/DTD/sodipodi-0.dtd"
   xmlns:inkscape="http://www.inkscape.org/namespaces/inkscape"
   version="1.0"
   height="90"
   width="330"
   id="svg2"
   inkscape:version="0.48.3.1 r9886"
   sodipodi:docname="Maxwell_diagram.svg">
  <sodipodi:namedview
     pagecolor="#ffffff"
     bordercolor="#666666"
     borderopacity="1"
     objecttolerance="10"
     gridtolerance="10"
     guidetolerance="10"
     inkscape:pageopacity="0"
     inkscape:pageshadow="2"
     inkscape:window-width="1440"
     inkscape:window-height="841"
     id="namedview34"
     showgrid="false"
     inkscape:zoom="0.98181818"
     inkscape:cx="-69.145152"
     inkscape:cy="-2.5196715"
     inkscape:window-x="-4"
     inkscape:window-y="-3"
     inkscape:window-maximized="1"
     inkscape:current-layer="svg2"
     showguides="true"
     inkscape:guide-bbox="true">
    <inkscape:grid
       type="xygrid"
       id="grid3883" />
    <sodipodi:guide
       orientation="1,0"
       position="-70.532408,-132.91667"
       id="guide4229" />
  </sodipodi:namedview>
  <metadata
     id="metadata4">
    <rdf:RDF>
      <cc:Work
         rdf:about="">
        <dc:format>image/svg+xml</dc:format>
        <dc:type
           rdf:resource="http://purl.org/dc/dcmitype/StillImage" />
        <cc:license
           rdf:resource="http://web.resource.org/cc/PublicDomain" />
      </cc:Work>
      <cc:License
         rdf:about="http://web.resource.org/cc/PublicDomain">
        <cc:permits
           rdf:resource="http://web.resource.org/cc/Reproduction" />
        <cc:permits
           rdf:resource="http://web.resource.org/cc/Distribution" />
        <cc:permits
           rdf:resource="http://web.resource.org/cc/DerivativeWorks" />
      </cc:License>
    </rdf:RDF>
  </metadata>
  <defs
     id="defs6">
    <marker
       inkscape:stockid="Arrow1Mend"
       orient="auto"
       refY="0.0"
       refX="0.0"
       id="Arrow1Mend"
       style="overflow:visible;">
      <path
         id="path3794"
         d="M 0.0,0.0 L 5.0,-5.0 L -12.5,0.0 L 5.0,5.0 L 0.0,0.0 z "
         style="fill-rule:evenodd;stroke:#000000;stroke-width:1.0pt;"
         transform="scale(0.4) rotate(180) translate(10,0)" />
    </marker>
    <marker
       inkscape:stockid="Arrow1Send"
       orient="auto"
       refY="0.0"
       refX="0.0"
       id="Arrow1Send"
       style="overflow:visible;">
      <path
         id="path3800"
         d="M 0.0,0.0 L 5.0,-5.0 L -12.5,0.0 L 5.0,5.0 L 0.0,0.0 z "
         style="fill-rule:evenodd;stroke:#000000;stroke-width:1.0pt;"
         transform="scale(0.2) rotate(180) translate(6,0)" />
    </marker>
    <marker
       inkscape:stockid="Arrow1Lend"
       orient="auto"
       refY="0.0"
       refX="0.0"
       id="Arrow1Lend"
       style="overflow:visible;">
      <path
         id="path3788"
         d="M 0.0,0.0 L 5.0,-5.0 L -12.5,0.0 L 5.0,5.0 L 0.0,0.0 z "
         style="fill-rule:evenodd;stroke:#000000;stroke-width:1.0pt;"
         transform="scale(0.8) rotate(180) translate(12.5,0)" />
    </marker>
  </defs>
  <path
     inkscape:connector-curvature="0"
     id="path10"
     style="fill:none;stroke:#000000;stroke-width:3.07520008"
     d="m 252.31845,178.16099 c -3.81,0.092 -9.06,1.003 -11.14,-3.107 -1.83,-3.512 -3.27,-7.697 -6.55,-10.115 -5.37,-1.94 -8.21,4.373 -8.61,8.7 -1.49,2.854 -0.73,11.52 3.78,7.696 2.89,-4.047 0.73,-9.309 -1.32,-13.22 -1.52,-3.573 -6.66,-4.882 -8.96,-1.363 -2.66,3.714 -3.34,8.591 -3,13.043 0.21,4.962 5.7,1.999 5.39,-1.482 0.55,-4.054 -1.41,-7.879 -3.09,-11.421 -3.18,-4.621 -9.8,-1.452 -10.21,3.538 -0.77,3.577 -3.17,10.083 0.87,12.093 4.98,-1.322 3.55,-7.954 2.18,-11.543 -0.81,-5.025 -6.93,-8.986 -10.65,-4.077 -2.26,4.504 -3.56,10.115 -1.88,15.064 3.49,2.577 5.91,-4.817 4.49,-7.817 -1.03,-3.811 -2.85,-9.258 -7.48,-9.554 -4.24,0.479 -5.85,5.249 -6.49,8.87 -1.39,2.849 -0.88,11.489 3.75,8.083 3.03,-4.472 0.72,-10.115 -1.76,-14.264 -1.78,-3.95 -7.76,-3.111 -9.4,0.541 -1.09,3.619 -2.67,7.381 -2.19,11.244 0.22,5.363 6.52,2.635 5.69,-1.576 0.16,-3.981 -1.35,-8.065 -3.94,-11.081 -3.01,-3.866 -7.92,-1.088 -9.05,2.804 -1.67,3.68 -1.85,7.847 -1.46,11.815 3.46,4.799 7.07,-4.007 4.94,-7.096 -0.78,-3.01 -2.14,-7.339 -5.9,-7.331 -4.77,1.171 -5.17,7.152 -8.16,10.301 -2.61,2.52 -6.58,0.927 -9.79,1.255"
     sodipodi:nodetypes="cccccccccccccccccccccccccccccc" />
  <path
     inkscape:connector-curvature="0"
     id="path12"
     style="fill:none;stroke:#000000;stroke-width:3.07520008"
     d="m 64.351452,163.16899 0,30.368"
     sodipodi:nodetypes="cc" />
  <path
     inkscape:connector-curvature="0"
     id="path14"
     style="fill:none;stroke:#000000;stroke-width:3.07520008"
     d="m 64.351452,178.16099 -39.017001,0"
     sodipodi:nodetypes="cc" />
  <path
     inkscape:connector-curvature="0"
     id="path16"
     style="fill:none;stroke:#000000;stroke-width:3.07520008"
     d="m 93.758452,178.16099 31.519998,0"
     sodipodi:nodetypes="cc" />
  <path
     inkscape:connector-curvature="0"
     id="path18"
     style="fill:none;stroke:#000000;stroke-width:3.07520008"
     d="m 49.359452,160.09399 c 12.889,0.063 25.778999,-0.13 38.669,0.101 2.54,-0.183 5.87,0.755 5.57,3.904 0.42,4.014 -0.01,8.055 0.15,12.081 -0.01,5.704 0.1,11.416 -0.13,17.113 -0.62,3.06 -4.299999,3.153 -6.799999,3.062 -8.610001,0.153 -17.217001,-0.002 -25.828001,0.065 -3.877,0 -7.754,0 -11.631,0"
     sodipodi:nodetypes="cccccccc" />
  <circle
     sodipodi:ry="47"
     sodipodi:rx="47"
     sodipodi:cy="755"
     sodipodi:cx="472"
     id="circle20"
     style="fill:#000000;fill-opacity:1;stroke:#000000;stroke-width:16"
     r="47"
     cy="755"
     cx="472"
     transform="matrix(0.37789362,0,0,0.37789362,-198.08454,-107.14868)" />
  <path
     inkscape:connector-curvature="0"
     id="path24"
     style="fill:none;stroke:#000000;stroke-width:3.07520008"
     d="m -1.9575462,178.16099 c 9.097,0 18.1949982,0 27.2919972,0"
     sodipodi:nodetypes="cc" />
  <path
     inkscape:connector-curvature="0"
     id="path26"
     style="fill:none;stroke:#000000;stroke-width:3.07520008"
     d="m 125.27845,178.16099 27.1,0"
     sodipodi:nodetypes="cc" />
  <path
     inkscape:connector-curvature="0"
     id="path28"
     style="fill:none;stroke:#000000;stroke-width:3.07520008"
     d="m 252.31845,178.16099 27.3,0"
     sodipodi:nodetypes="cc" />
  <text
     id="text30"
     style="font-size:29.20000076px;font-style:normal;font-weight:normal;text-anchor:start;fill:#000000;stroke:#000000;stroke-width:0.0048in;font-family:AvantGarde"
     y="140.59999"
     x="186.41298">k</text>
  <path
     inkscape:connector-curvature="0"
     id="path32"
     style="font-size:29.20000076px;font-style:normal;font-weight:normal;text-anchor:start;fill:#000000;stroke:#000000;stroke-width:0.0048in;font-family:AvantGarde"
     d="m 76.508452,146.74899 -2.680001,0 0,-14.949 c 0,-0.732 -0.04,-1.417 -0.13,-2.054 -0.08,-0.647 -0.239999,-1.151 -0.47,-1.512 -0.229999,-0.4 -0.576999,-0.695 -1.024,-0.885 -0.447,-0.2 -1.026999,-0.299 -1.739999,-0.299 -0.732,0 -1.498001,0.18 -2.297,0.542 -0.798,0.361 -1.564001,0.822 -2.295999,1.383 l 0,11.897 -2.682001,0 0,-15.9336 2.682001,0 0,1.7686 c 0.837,-0.694 1.701998,-1.2361 2.595999,-1.626 0.894001,-0.3899 1.812,-0.5848 2.753,-0.5848 1.718001,0 3.038,0.5183 3.938001,1.5548 0.9,1.037 1.349999,2.53 1.349999,4.479 l 0,16.219"
     sodipodi:nodetypes="ccscccscccccccsscsc" />
  <text
     xml:space="preserve"
     style="font-size:28px;font-style:normal;font-variant:normal;font-weight:normal;font-stretch:normal;text-align:start;line-height:125%;letter-spacing:0px;word-spacing:0px;writing-mode:lr-tb;text-anchor:start;fill:#000000;fill-opacity:1;stroke:none;font-family:AvantGarde;-inkscape-font-specification:AvantGarde"
     x="-35.787037"
     y="145.6926"
     id="text3023"
     sodipodi:linespacing="125%"><tspan
       sodipodi:role="line"
       id="tspan3025"
       x="-35.787037"
       y="145.6926"
       style="font-style:normal;font-variant:normal;font-weight:normal;font-stretch:normal;font-family:Bitstream Vera Sans;-inkscape-font-specification:Bitstream Vera Sans">m</tspan></text>
  <path
     inkscape:connector-curvature="0"
     id="path3797-2-33"
     style="fill:none;stroke:#000000;stroke-width:2.5999999;stroke-linecap:round;stroke-linejoin:miter;stroke-miterlimit:4;stroke-opacity:1;stroke-dasharray:none"
     d="m 279.82845,228.6 18.33334,-8.14816 m -18.33334,-13.85185 18.33334,-8.14814 m -18.33334,-13.85186 18.33334,-8.14814 m -18.33334,-13.85186 18.33334,-8.14814 m -18.33334,-13.85186 18.33334,-8.14814 M 279.82845,228.6 l 0,-88.00001"
     sodipodi:nodetypes="cccccccccccc" />
  <path
     style="fill:none;stroke:#000000;stroke-width:3.2;stroke-linecap:butt;stroke-linejoin:miter;stroke-miterlimit:4;stroke-opacity:1;stroke-dasharray:none;stroke-dashoffset:0;marker-end:url(#Arrow1Mend)"
     d="m -54.721548,178.16099 -71.249992,0"
     id="path3011"
     inkscape:connector-curvature="0"
     sodipodi:nodetypes="cc" />
  <text
     xml:space="preserve"
     style="font-size:22px;font-style:normal;font-variant:normal;font-weight:normal;font-stretch:normal;text-align:start;line-height:125%;letter-spacing:0px;word-spacing:0px;writing-mode:lr-tb;text-anchor:start;fill:#000000;fill-opacity:1;stroke:none;font-family:Sans;-inkscape-font-specification:Sans"
     x="-174.72156"
     y="178.16098"
     id="text4225"
     sodipodi:linespacing="125%"><tspan
       sodipodi:role="line"
       id="tspan4227"
       x="-174.72156"
       y="178.16098"
       style="font-size:28px;font-style:normal;font-variant:normal;font-weight:normal;font-stretch:normal;font-family:Bitstream Vera Sans;-inkscape-font-specification:Bitstream Vera Sans">f(t)</tspan></text>
  <path
     style="fill:none;stroke:#000000;stroke-width:3.136;stroke-linecap:butt;stroke-linejoin:miter;stroke-miterlimit:4;stroke-opacity:1;stroke-dasharray:none"
     d="m -20,204.68619 0,13.58861"
     id="path4231"
     inkscape:connector-curvature="0" />
  <path
     style="fill:none;stroke:#000000;stroke-width:1;stroke-linecap:butt;stroke-linejoin:miter;stroke-opacity:1;stroke-miterlimit:4;stroke-dasharray:1,2;stroke-dashoffset:0"
     d="m -20,210.99383 299.79823,0"
     id="path4235"
     inkscape:connector-curvature="0" />
  <text
     xml:space="preserve"
     style="font-size:28px;font-style:normal;font-variant:normal;font-weight:normal;font-stretch:normal;text-align:start;line-height:125%;letter-spacing:0px;word-spacing:0px;writing-mode:lr-tb;text-anchor:start;fill:#000000;fill-opacity:1;stroke:none;font-family:Sans;-inkscape-font-specification:Sans"
     x="-36.662277"
     y="243.25812"
     id="text4237"
     sodipodi:linespacing="125%"><tspan
       sodipodi:role="line"
       id="tspan4239"
       x="-36.662277"
       y="243.25812">y(t)</tspan></text>
</svg>
